<?xml version="1.0" encoding="UTF-8"?>
<svg xmlns="http://www.w3.org/2000/svg" width="51" height="60" viewBox="0 0 51 60" fill="none">
  <path d="M25.5111 59.9947C20.4739 59.9947 15.4376 60.009 10.4004 59.9895C7.0372 59.9772 4.70031 56.547 5.81969 53.2984C6.11506 52.4406 6.61168 51.707 7.30754 51.1396C7.58188 50.9159 7.67199 50.6717 7.68601 50.3269C7.82618 46.7664 9.08074 43.6717 11.4727 41.0891C11.8872 40.6407 11.8191 40.4272 11.4377 40.0373C9.65345 38.213 8.25271 36.1259 7.49077 33.6407C7.33457 33.1297 7.0332 33.0825 6.60467 33.0774C4.32584 33.0528 2.44451 32.1786 1.12287 30.2352C-0.970721 27.1559 -0.0435723 22.8792 3.12936 21.0014C3.59394 20.7264 3.74813 20.4217 3.75113 19.8943C3.76615 17.4101 3.69706 14.926 3.80119 12.4408C3.98842 7.96401 6.05599 4.62 9.63542 2.2046C11.8341 0.720883 14.2952 0.0190415 16.9275 0.0139111C22.9179 0.00159808 28.9083 -0.0127671 34.8987 0.0190415C40.4907 0.0487979 45.7121 4.05155 47.226 9.41181C47.5204 10.4543 47.6896 11.5173 47.6836 12.6111C47.6696 15.1179 47.6926 17.6246 47.6686 20.1313C47.6636 20.6546 47.8218 20.9655 48.2433 21.2785C50.426 22.8976 51.3912 25.1058 50.8545 27.8239C50.3148 30.5584 48.5947 32.236 45.9554 32.9102C45.6561 32.9871 45.3377 33.0661 45.0363 33.0405C44.3404 32.983 44.0991 33.3514 43.8809 33.9722C43.0308 36.3917 41.603 38.4438 39.8168 40.2282C39.4233 40.6212 39.3543 40.8469 39.7457 41.2902C42.0276 43.881 43.215 46.9367 43.3152 50.4275C43.3242 50.7373 43.4563 50.9251 43.6746 51.119C45.2516 52.5196 45.8223 54.2927 45.2576 56.3367C44.6849 58.4094 43.2541 59.5996 41.1815 59.9577C40.8781 60.0101 40.5618 59.9926 40.2514 59.9926C35.3393 59.9947 30.4262 59.9936 25.5141 59.9926L25.5111 59.9947ZM18.2661 19.6511C21.4581 19.6511 24.65 19.6542 27.842 19.6501C29.9065 19.647 31.2983 18.6722 32.0452 16.7062C32.3015 16.0331 32.5698 15.3662 32.9143 14.7351C33.3668 13.9071 33.9426 13.5377 34.6484 13.6701C35.4324 13.8168 35.8249 14.3524 36.0161 15.1302C36.3035 16.304 36.9122 17.3291 37.6612 18.2433C38.4151 19.1627 39.4203 19.609 40.6098 19.6542C41.7642 19.6983 42.9427 19.45 44.0671 19.8235C44.5717 19.9907 44.6188 19.8409 44.6168 19.3977C44.6068 17.1464 44.6168 14.8952 44.6168 12.643C44.6168 11.503 44.4115 10.3969 43.9479 9.36461C42.1227 5.29722 38.8977 3.27583 34.6434 3.18041C28.7812 3.04804 22.9129 3.13936 17.0476 3.15065C15.1272 3.15475 13.306 3.61546 11.6499 4.62924C8.90552 6.30996 7.12732 8.71818 6.90804 12.0406C6.74684 14.494 6.872 16.9658 6.86098 19.4305C6.85898 19.8071 6.91105 20.0195 7.34458 19.8142C7.68901 19.6511 8.06548 19.648 8.44195 19.648C11.717 19.6521 14.9911 19.6501 18.2661 19.6501V19.6511ZM34.4091 19.0036C33.6442 20.2883 32.71 21.2508 31.5015 21.9382C30.1649 22.6986 28.7141 22.8484 27.2342 22.8504C21.6804 22.8576 16.1265 22.8535 10.5726 22.8535C10.3653 22.8535 10.1581 22.8576 9.95082 22.8586C9.65645 22.8607 9.47222 22.9869 9.48023 23.3132C9.54431 25.664 9.24494 28.0332 9.75057 30.3614C10.9971 36.1013 14.3262 39.946 19.8551 41.5857C23.2693 42.5984 26.8017 42.4353 30.274 41.914C35.7298 41.0952 40.5007 36.3116 41.6591 30.8005C42.1637 28.3995 41.9335 25.981 42.0166 23.5687C42.0366 22.9941 41.8113 22.8535 41.2887 22.8412C40.3395 22.8176 39.3883 22.7766 38.4692 22.4585C36.722 21.8541 35.4214 20.6987 34.4101 19.0057L34.4091 19.0036ZM25.4981 56.8579C26.7006 56.8579 27.9031 56.8353 29.1046 56.8682C29.6482 56.8836 29.7534 56.7676 29.6142 56.194C28.9313 53.3795 30.5263 50.7322 33.2627 50.0735C33.9305 49.9124 34.6174 49.9031 35.3012 49.9011C36.711 49.897 38.1207 49.8949 39.5305 49.9011C39.917 49.9031 40.1873 49.8272 40.1182 49.3326C39.7808 46.9049 38.8416 44.7789 37.1525 43.0171C36.8972 42.7503 36.6839 42.6651 36.3515 42.8919C35.148 43.7128 33.8114 44.2258 32.4207 44.5952C32.0522 44.6927 31.888 44.8579 31.866 45.2857C31.7679 47.1963 30.9729 48.7457 29.468 49.9C28.0923 50.9549 26.5123 51.1201 24.8623 51.0729C21.7725 50.9846 19.2153 48.4266 19.1292 45.258C19.1172 44.7963 18.976 44.5654 18.5405 44.4505C17.2068 44.0975 15.9573 43.5342 14.7948 42.779C14.4684 42.5666 14.2541 42.6128 13.9888 42.8837C12.2376 44.6752 11.2354 46.8382 10.882 49.3347C10.8109 49.8354 11.0862 49.9031 11.4697 49.9011C12.7753 49.8949 14.0819 49.9031 15.3876 49.898C16.1545 49.8949 16.9305 49.8826 17.6774 50.0499C20.4608 50.6727 22.0728 53.3785 21.37 56.2546C21.2448 56.7656 21.3389 56.8784 21.8305 56.8671C23.0531 56.8394 24.2766 56.8579 25.4991 56.8579H25.4981ZM13.5533 53.1035C12.519 53.1035 11.4837 53.0932 10.4494 53.1066C9.40614 53.1199 8.65321 53.8525 8.62017 54.8601C8.58612 55.8852 9.33105 56.8179 10.3283 56.8384C12.4589 56.8815 14.5906 56.8825 16.7212 56.8353C17.7244 56.8128 18.5254 55.8524 18.4864 54.8919C18.4443 53.8679 17.6644 53.1209 16.594 53.1066C15.5808 53.0932 14.5665 53.1035 13.5523 53.1045L13.5533 53.1035ZM37.4899 53.1025C36.4757 53.1025 35.4624 53.0942 34.4482 53.1045C33.3338 53.1158 32.5408 53.8587 32.5068 54.9032C32.4737 55.9201 33.3288 56.8333 34.4071 56.8466C36.4547 56.8723 38.5042 56.8723 40.5517 56.8466C41.598 56.8343 42.384 55.9611 42.374 54.9104C42.364 53.8679 41.6171 53.123 40.5307 53.1055C39.5175 53.0891 38.5032 53.1025 37.4889 53.1004L37.4899 53.1025ZM6.34234 25.8907C6.34234 25.1458 6.34635 24.5732 6.34134 24.0017C6.33433 23.2793 6.16713 23.1583 5.46726 23.3522C3.4878 23.9011 2.48056 26.2211 3.43774 28.0804C3.98542 29.1455 4.84449 29.7775 6.04698 29.8565C6.36737 29.8781 6.53758 29.8104 6.49653 29.3948C6.37538 28.1738 6.3093 26.9466 6.34234 25.8907ZM47.8858 26.5905C47.8938 25.1499 47.0558 23.935 45.7462 23.4876C45.1294 23.2773 45.0834 23.3163 45.0653 23.9719C45.0153 25.7737 45.1855 27.5786 44.9592 29.3763C44.9021 29.8329 45.1304 29.8565 45.4899 29.7601C46.9306 29.3732 47.8778 28.1317 47.8858 26.5905ZM25.4881 47.9289C25.6743 47.9289 25.8615 47.9382 26.0478 47.9279C27.3644 47.8499 28.4477 46.9367 28.7011 45.7259C28.7771 45.3627 28.7331 45.2847 28.3286 45.2929C26.4673 45.3319 24.602 45.454 22.7437 45.2232C22.2851 45.1657 22.1509 45.296 22.2871 45.7855C22.6786 47.1932 23.7529 47.932 25.4881 47.9289Z" fill="#29DAC4"></path>
</svg>
