<?xml version="1.0" encoding="UTF-8"?>
<svg xmlns="http://www.w3.org/2000/svg" width="68" height="71" viewBox="0 0 68 71" fill="none">
  <path d="M65.9221 56.0885C63.981 51.082 59.5879 48.0542 57.8671 47.0226C60.7342 46.2581 62.8575 43.5761 62.8575 40.394C62.8575 39.0073 62.4462 37.6564 61.6906 36.5233C62.1224 34.4794 62.3435 32.3809 62.3435 30.2747C62.3437 14.1326 49.5653 0.999756 33.8587 0.999756C18.1514 0.999756 5.37235 14.1326 5.37235 30.2749C5.37235 32.4986 5.61903 34.7108 6.10002 36.8611C5.49244 37.8934 5.14217 39.1026 5.14217 40.3946C5.14217 43.5766 7.26536 46.2585 10.1323 47.0231C8.4112 48.0549 4.0187 51.0827 2.07793 56.0886C-0.312256 62.2531 2.00401 68.8674 2.10363 69.146C2.228 69.4932 2.49039 69.7701 2.82495 69.907C2.97598 69.9689 3.13541 69.9996 3.29468 69.9996C3.48806 69.9996 3.68096 69.9543 3.85784 69.8641C4.11673 69.7324 10.2243 66.5675 12.6143 60.403C13.0412 59.3023 13.3172 58.1871 13.4833 57.0962C14.3106 58.6272 15.3026 60.0719 16.4511 61.4008C20.9032 66.553 27.2997 69.5079 33.9999 69.5079C40.6999 69.5079 47.0963 66.553 51.5484 61.4009C52.6971 60.0719 53.6891 58.627 54.5164 57.096C54.6825 58.187 54.9587 59.3021 55.3854 60.403C57.7753 66.5677 63.883 69.7326 64.1419 69.8643C64.3189 69.9543 64.5116 69.9998 64.705 69.9998C64.8641 69.9998 65.0237 69.9691 65.1747 69.9072C65.5093 69.7702 65.7717 69.4934 65.8961 69.1461C65.996 68.8674 68.3123 62.2531 65.9221 56.0885ZM57.464 44.4267V41.6852C57.834 41.759 58.2076 41.8291 58.5892 41.8908C58.6554 41.9013 58.7214 41.9067 58.7867 41.9067C59.2569 41.9067 59.6959 41.6376 59.9156 41.1974L60.3192 40.3884C60.3192 40.3904 60.3193 40.3922 60.3193 40.3941C60.3195 42.2763 59.1191 43.8751 57.464 44.4267ZM33.8587 3.60822C48.1658 3.60822 59.8055 15.5708 59.8055 30.2749C59.8055 32.3855 59.5647 34.4876 59.0905 36.5209C59.0896 36.5251 59.0886 36.5294 59.0875 36.5334C58.9016 37.3228 58.0826 39.1543 58.0826 39.1543C51.913 37.9614 46.7157 34.8913 42.6235 30.0196C39.3948 26.1759 38.1013 22.5874 38.0892 22.5537C37.9128 22.0511 37.4558 21.7097 36.9359 21.6926C36.411 21.6779 35.9389 21.9862 35.7314 22.4761C35.6365 22.7004 33.7007 27.4045 35.6965 32.5384C31.9639 31.9859 28.4805 29.9803 25.3156 26.5556C22.4344 23.4378 20.9212 20.26 20.9067 20.2295C20.6213 19.6201 19.9224 19.3262 19.288 19.5856C18.8013 19.7846 18.4948 20.2886 18.494 20.8269C18.482 29.074 13.7187 32.316 11.9836 33.2235C11.6423 33.402 9.17218 34.008 8.25336 34.6053C8.02682 33.1788 7.91007 31.7299 7.91007 30.2751C7.91054 15.5708 19.5509 3.60822 33.8587 3.60822ZM7.68036 40.3945C7.68036 38.5121 8.88077 36.9133 10.536 36.3618V44.427C8.88077 43.8756 7.68036 42.2768 7.68036 40.3945ZM10.2565 59.4374C8.85792 63.0446 5.82367 65.5165 4.06518 66.7084C3.58593 64.5994 3.03737 60.6608 4.43575 57.0539C5.83414 53.4469 8.86839 50.9751 10.627 49.7831C11.1063 51.8921 11.6547 55.8307 10.2565 59.4374ZM49.6508 59.6688C45.6798 64.2639 39.9754 66.8994 34 66.8994C28.0246 66.8994 22.32 64.2639 18.349 59.6686C14.9475 55.7331 13.0742 50.6632 13.0742 45.3926V35.5727C13.9289 35.1255 15.3178 34.2592 16.6954 32.7988C18.1985 31.2056 19.9205 28.6386 20.6618 24.8138C21.3882 25.8739 22.308 27.0817 23.4213 28.2931C27.6364 32.8798 32.6249 35.3042 37.8473 35.3042C38.3105 35.3042 38.7368 35.0448 38.9598 34.6276C39.1828 34.2104 39.1668 33.7015 38.9179 33.2998C37.51 31.026 37.2432 28.7108 37.3528 26.903C38.1278 28.2716 39.202 29.9257 40.6314 31.6391C43.4007 34.9594 48.012 39.0475 54.9258 41.064V45.3926C54.9258 50.6632 53.0525 55.7332 49.6508 59.6688ZM63.934 66.7119C62.1776 65.5257 59.1488 63.0617 57.7435 59.4374C56.3452 55.8304 56.8937 51.8913 57.3728 49.7831C59.1321 50.9754 62.1659 53.4472 63.5643 57.0539C64.9636 60.6634 64.4134 64.6048 63.934 66.7119Z" fill="#0087D5" stroke="#0087D5"></path>
</svg>
