<?xml version="1.0" encoding="UTF-8"?>
<svg xmlns="http://www.w3.org/2000/svg" width="56" height="84" viewBox="0 0 56 84" fill="none">
  <path id="Vector" d="M30.3286 4.12538C28.1434 4.10278 25.9581 4.07534 23.7729 4.014C22.2538 3.97204 20.7168 4.09956 19.3025 4.80656C18.1731 5.37152 17.3939 6.21088 16.9749 7.39406C16.5165 8.68701 16.0893 8.94366 14.6701 8.98724C12.719 9.04535 10.7989 9.31169 9.02449 10.1704C5.73434 11.7636 4.34953 14.6336 3.78972 18.0007C3.07603 22.296 3.72097 26.53 4.50176 30.7494C4.53614 30.9366 4.52468 31.1997 4.91099 31.2966C5.04849 30.3426 5.15652 29.3967 5.32348 28.4605C6.10428 24.0877 8.14712 20.5108 12.0691 18.1299C13.4686 17.2808 14.2511 17.4955 15.0826 18.895C16.3365 21.0095 18.304 22.3073 20.4795 23.3259C23.5273 24.7512 26.7782 25.4146 30.1175 25.7132C30.6331 25.76 31.1487 25.8117 31.6643 25.8617C32.2078 25.915 32.4435 25.7487 32.2241 25.1757C32.0997 24.8512 32.0261 24.5026 31.9557 24.1604C31.7871 23.3388 31.8755 22.5704 32.6546 22.0829C33.4076 21.61 34.1557 21.7424 34.8677 22.246C36.6536 23.5066 38.5524 24.5623 40.6263 25.2967C41.3989 25.5695 42.1895 25.7713 42.9916 25.9424C43.4237 26.0344 43.6022 25.8746 43.684 25.4921C43.8477 24.7286 44.0032 23.9618 44.1947 23.2048C44.563 21.7488 45.8185 21.2678 47.0887 22.1072C48.5898 23.0999 49.4033 24.5881 50.0188 26.1991C50.5819 27.6712 50.8078 29.2176 50.9976 30.7704C51.0156 30.9189 50.9469 31.1029 51.1973 31.2272C51.5738 30.5847 51.5656 29.8487 51.6933 29.1643C52.3415 25.6535 52.6476 22.1088 52.3694 18.5479C52.0469 14.4254 50.7308 10.7402 47.1166 8.22536C46.2212 7.60229 45.2358 7.1358 44.2504 6.66446C40.2875 4.83077 34.853 4.29003 30.327 4.12377L30.3286 4.12538ZM45.9298 3.6605C51.5214 6.10596 54.6594 10.3899 55.5973 16.2865C56.4354 21.5567 55.761 26.756 54.7085 31.9245C54.5906 32.504 54.6872 32.9253 55.0342 33.4144C56.1833 35.0318 56.311 36.7977 55.396 38.5361C54.4989 40.2391 53.0225 41.2479 51.0271 41.1478C49.8895 41.0913 49.3935 41.4933 48.9171 42.4989C46.1966 48.2324 41.8016 52.2291 35.7664 54.4372C34.6762 54.8359 34.632 54.8876 34.871 56.0143C34.8825 56.0675 34.8972 56.1192 34.9086 56.1725C35.3277 58.124 36.0888 58.7809 38.0957 58.852C39.1875 58.8907 40.2826 58.86 41.3744 58.8633C47.5078 58.881 52.6411 63.9527 52.6558 70.0171C52.664 73.8443 52.6591 77.6731 52.6558 81.5003C52.6558 83.0128 52.1107 83.5584 50.5982 83.5584C35.5388 83.56 20.4795 83.56 5.42006 83.5584C3.89448 83.5584 3.34612 83.0176 3.34448 81.5197C3.34121 77.6376 3.33466 73.7555 3.34612 69.8735C3.36413 63.9818 8.53997 58.8955 14.5195 58.8552C15.9371 58.8455 17.3563 58.944 18.7754 58.7535C19.7887 58.6179 20.4123 58.082 20.7872 57.1975C20.8919 56.9505 20.9803 56.6922 21.0425 56.4323C21.419 54.865 21.4059 54.8892 19.8754 54.3016C13.9368 52.0241 9.6416 48.0016 6.98493 42.3036C6.60353 41.4836 6.21559 41.0865 5.24328 41.1575C3.15133 41.3076 1.56518 40.3553 0.615786 38.5587C-0.346706 36.7363 -0.176469 34.9075 1.09539 33.24C1.34584 32.9124 1.32456 32.625 1.24926 32.2667C0.416085 28.27 -0.11263 24.2427 0.0788859 20.154C0.191831 17.7441 0.61906 15.3922 1.62084 13.1712C3.57037 8.84842 7.07004 6.54179 11.6992 5.84447C13.0873 5.63463 14.1087 5.34569 14.973 4.02046C16.4592 1.74288 18.9866 0.861544 21.6138 0.695285C24.5799 0.508042 27.5688 0.496743 30.5398 0.774379C35.8384 1.14564 41.3203 1.51367 45.9298 3.65889V3.6605ZM46.8105 27.6357C46.3227 29.266 45.9396 29.5743 44.2815 29.521C41.9244 29.4435 39.7162 28.7607 37.6013 27.7713C37.1463 27.5582 36.9089 27.5049 36.7452 28.1022C36.4997 28.9932 35.9382 29.3483 34.9872 29.3661C30.895 29.4419 26.8617 29.019 22.9266 27.8907C19.1683 26.8141 15.7374 25.1595 13.1462 22.1443C12.8041 21.7472 12.6158 21.9603 12.3588 22.183C10.6074 23.6939 9.61868 25.6373 9.01958 27.8181C8.54488 29.5517 8.53997 31.3337 8.37792 33.1012C8.28625 34.0972 7.6937 34.6686 6.6821 34.7025C6.19104 34.7186 5.69669 34.6847 5.20726 34.7218C4.20058 34.7977 3.51472 35.4337 3.50817 36.2585C3.50162 37.0818 4.18421 37.7371 5.18762 37.8146C5.7589 37.8582 6.33508 37.8307 6.90799 37.8323C8.81661 37.8323 8.99667 37.9631 9.65142 39.7048C12.9776 48.5665 22.1556 53.7948 31.589 51.9918C38.8994 50.5939 43.8379 46.255 46.4733 39.3852C46.9578 38.1229 47.3425 37.8533 48.7109 37.8259C49.5801 37.8081 50.4591 37.9453 51.3201 37.7129C52.0845 37.5063 52.4905 36.9752 52.4774 36.2359C52.4659 35.5354 52.06 35.0398 51.3365 34.8235C50.7161 34.6379 50.0892 34.7267 49.4639 34.7089C48.2886 34.6767 47.7288 34.144 47.6191 32.9979C47.4521 31.2353 47.5045 29.4387 46.8105 27.6357ZM29.7017 67.089C29.7017 71.4053 29.705 75.5263 29.6968 79.6488C29.6968 80.217 30.0602 80.2138 30.4678 80.2138C33.1735 80.2106 35.8793 80.1961 38.5851 80.2235C39.2251 80.2299 39.4494 80.0346 39.4363 79.3922C39.4019 77.586 39.4199 75.7797 39.4281 73.9734C39.433 72.9791 39.9061 72.3254 40.7114 72.1559C41.6068 71.967 42.3581 72.3318 42.7362 73.2551C42.9081 73.6781 43.152 73.7475 43.54 73.7458C45.1801 73.7362 46.8203 73.7233 48.4588 73.7523C49.0514 73.762 49.3084 73.5877 49.2756 72.9727C49.2347 72.2205 49.292 71.4618 49.2593 70.7096C49.1938 69.1358 48.9712 67.5975 48.1052 66.219C46.3259 63.3829 43.6726 62.2159 40.3726 62.1884C39.5574 62.182 39.1711 62.366 38.973 63.2118C38.5131 65.1779 37.914 67.1133 37.3836 69.0632C37.1545 69.9074 36.629 70.4384 35.7516 70.5547C35.1755 70.6305 34.7073 70.2964 34.2473 70.0026C32.784 69.068 31.3222 68.1302 29.7001 67.0907L29.7017 67.089ZM26.3035 67.0907C24.6715 68.1366 23.1967 69.0938 21.7071 70.0301C20.1439 71.0115 19.0701 70.6111 18.5741 68.8566C18.0176 66.8873 17.4741 64.9148 16.9503 62.9358C16.8128 62.4177 16.5902 62.132 15.9976 62.1997C15.3494 62.2724 14.693 62.2788 14.0416 62.3353C10.776 62.6243 7.93596 64.9632 7.08969 68.0979C6.63463 69.7831 6.73612 71.5151 6.74103 73.2374C6.74103 73.6958 7.04058 73.7442 7.4007 73.7426C9.12107 73.7394 10.8414 73.7378 12.5618 73.7426C12.8908 73.7426 13.0873 73.6603 13.2395 73.3149C13.6749 72.327 14.3886 71.9574 15.302 72.1575C16.1253 72.3383 16.5722 72.9969 16.5755 74.0638C16.5804 75.8685 16.5869 77.6731 16.5706 79.4777C16.5656 79.9668 16.6884 80.2219 17.2531 80.2187C20.0375 80.2009 22.8235 80.2057 25.6078 80.2154C26.0776 80.217 26.3084 80.0831 26.3068 79.5746C26.2953 75.4827 26.3002 71.3924 26.3002 67.0907H26.3035ZM28.0026 61.299C29.4774 61.2393 30.8475 60.86 32.0834 60.04C32.432 59.8076 32.5581 59.588 32.3207 59.1813C31.7969 58.2854 31.517 57.3024 31.3893 56.279C31.3255 55.7608 31.1274 55.5494 30.53 55.6204C28.8489 55.8206 27.1547 55.819 25.472 55.6204C24.8794 55.551 24.6715 55.7528 24.6126 56.2774C24.4997 57.2765 24.2083 58.2337 23.7156 59.1086C23.4471 59.5832 23.5715 59.8237 23.9857 60.0884C25.2101 60.8729 26.554 61.2409 28.0026 61.299ZM9.9477 80.2122H10.8464C13.3344 80.2122 13.3213 80.2122 13.1953 77.7377C13.1707 77.2486 12.989 77.0759 12.5078 77.0839C11.3652 77.1017 10.2211 77.0888 9.07851 77.0888C6.59207 77.0888 6.60353 77.0888 6.73121 79.5633C6.75576 80.0524 6.93582 80.2283 7.4187 80.217C8.2617 80.196 9.10634 80.2106 9.95097 80.2122H9.9477ZM46.0329 77.0888C45.1883 77.0888 44.3453 77.1033 43.5023 77.0839C43.0243 77.0726 42.7952 77.2341 42.8148 77.7328C42.8394 78.322 42.841 78.9144 42.8148 79.5036C42.7903 80.0169 42.9834 80.2251 43.522 80.2187C45.2096 80.1977 46.8972 80.2009 48.5849 80.217C49.0612 80.2219 49.292 80.0653 49.2724 79.5665C49.2478 78.9774 49.2462 78.385 49.2724 77.7958C49.2969 77.2809 49.1038 77.0646 48.5652 77.0823C47.7222 77.1098 46.8776 77.0904 46.0346 77.0904L46.0329 77.0888ZM24.5062 64.1335C23.0445 63.6283 21.915 62.9471 20.8969 62.0868C20.7741 61.9834 20.6317 61.8543 20.4664 61.9738C20.3141 62.0835 20.3534 62.2611 20.396 62.4177C20.6922 63.4765 20.9967 64.5338 21.2864 65.5943C21.3847 65.9543 21.5647 66.0189 21.8741 65.8203C22.6893 65.2941 23.5077 64.7727 24.5046 64.1335H24.5062ZM31.5137 64.1448C32.4893 64.7695 33.3078 65.2909 34.1229 65.8155C34.4258 66.0108 34.614 65.9656 34.7139 65.5976C35.0036 64.5371 35.3064 63.4798 35.6043 62.4209C35.6485 62.2627 35.6894 62.0851 35.5405 61.9754C35.3768 61.8543 35.2327 61.9802 35.11 62.0851C34.0935 62.9503 32.9493 63.6073 31.5154 64.1464L31.5137 64.1448Z" fill="#65BC46"></path>
</svg>
